<?xml version="1.0" encoding="iso-8859-1"?>
<!-- Uploaded to: SVG Repo, www.svgrepo.com, Generator: SVG Repo Mixer Tools -->
<svg height="800px" width="800px" version="1.1" id="Layer_1" xmlns="http://www.w3.org/2000/svg" xmlns:xlink="http://www.w3.org/1999/xlink" 
	 viewBox="0 0 512 512" xml:space="preserve">
<path style="fill:#FF8163;" d="M279.519,435.164c-5.149,0-10.084-2.049-13.725-5.691l-133.907-134.09
	c-18.933-18.938-29.36-44.121-29.36-70.907c0-26.784,10.427-51.966,29.36-70.906c18.929-18.941,44.102-29.372,70.872-29.372
	c26.772,0,51.946,10.431,70.876,29.372l5.883,5.884l5.881-5.884c18.934-18.941,44.102-29.372,70.88-29.372
	c26.771,0,51.941,10.431,70.873,29.372c18.928,18.94,29.358,44.123,29.358,70.906c0,26.787-10.429,51.969-29.358,70.909
	L293.244,429.472C289.604,433.115,284.669,435.164,279.519,435.164z"/>
<g style="opacity:0.1;">
	<path d="M298.296,407.827l-133.908-134.09c-18.933-18.938-29.36-44.121-29.36-70.907c0-26.784,10.427-51.966,29.36-70.906
		c0.083-0.083,0.168-0.163,0.252-0.246c-12.105,4.977-23.222,12.354-32.753,21.892c-18.932,18.94-29.36,44.123-29.36,70.906
		c0,26.787,10.427,51.969,29.36,70.907l133.907,134.089c3.639,3.641,8.575,5.691,13.725,5.691c5.149,0,10.084-2.049,13.725-5.691
		l16.136-16.158C305.209,412.74,301.306,410.838,298.296,407.827z"/>
</g>
<g>
	<path style="fill:#FF8163;" d="M472.19,174.497c-2.798,0-5.505-1.503-6.916-4.141c-5.491-10.259-12.502-19.691-20.842-28.035
		c-7.132-7.137-15.098-13.328-23.674-18.401c-3.725-2.203-4.959-7.009-2.755-10.734c2.205-3.726,7.012-4.957,10.734-2.755
		c9.708,5.743,18.718,12.744,26.781,20.811c9.426,9.43,17.359,20.103,23.575,31.718c2.043,3.816,0.604,8.565-3.211,10.607
		C474.704,174.198,473.438,174.497,472.19,174.497z"/>
	<path style="fill:#FF8163;" d="M504.166,169.506c-2.986,0-5.842-1.719-7.148-4.621c-7.2-15.983-17.213-30.454-29.762-43.006
		c-12.709-12.716-27.374-22.825-43.59-30.046c-3.954-1.762-5.731-6.394-3.972-10.347c1.762-3.955,6.395-5.731,10.347-3.972
		c17.977,8.006,34.228,19.204,48.3,33.284c13.894,13.899,24.986,29.931,32.966,47.649c1.777,3.946,0.021,8.587-3.927,10.363
		C506.335,169.283,505.243,169.506,504.166,169.506z"/>
	<path style="fill:#FF8163;" d="M36.382,281.141c-1.023,0-2.062-0.201-3.062-0.626c-3.984-1.693-5.841-6.293-4.149-10.278
		c4.758-11.2,11.571-21.282,20.25-29.966c3.059-3.063,8.022-3.064,11.082-0.003c3.062,3.061,3.063,8.022,0.003,11.082
		c-7.252,7.255-12.941,15.671-16.91,25.014C42.332,279.351,39.431,281.141,36.382,281.141z"/>
	<path style="fill:#FF8163;" d="M7.837,272.715c-0.963,0-1.941-0.179-2.891-0.555c-4.023-1.598-5.988-6.154-4.391-10.176
		c6.099-15.354,15.177-29.127,26.984-40.937c3.849-3.853,7.979-7.471,12.273-10.756c3.44-2.631,8.358-1.973,10.986,1.463
		c2.63,3.439,1.975,8.357-1.463,10.986c-3.746,2.864-7.349,6.023-10.71,9.386c-10.29,10.293-18.197,22.285-23.503,35.643
		C13.902,270.843,10.953,272.715,7.837,272.715z"/>
</g>
<path style="fill:#E84731;" d="M167.299,435.164c-3.121,0-6.116-1.242-8.322-3.451l-81.192-81.3
	c-11.477-11.482-17.8-26.751-17.8-42.993c0-16.238,6.323-31.508,17.8-42.991c11.477-11.486,26.741-17.809,42.972-17.809
	c16.235,0,31.495,6.324,42.975,17.809l3.566,3.567l3.565-3.567c11.479-11.486,26.74-17.809,42.975-17.809
	c16.232,0,31.495,6.324,42.972,17.809c11.477,11.482,17.802,26.754,17.802,42.991c0,16.242-6.325,31.51-17.802,42.993
	l-81.192,81.299C173.414,433.92,170.423,435.164,167.299,435.164z"/>
<path style="opacity:0.1;enable-background:new    ;" d="M191.479,410.066l-81.192-81.299
	c-11.477-11.482-17.801-26.753-17.801-42.994c0-13.611,4.459-26.533,12.656-37.124c-10.254,2.709-19.658,8.076-27.356,15.78
	c-11.477,11.482-17.8,26.754-17.8,42.991c0,16.242,6.323,31.51,17.8,42.993l81.192,81.3c2.206,2.208,5.2,3.451,8.322,3.451
	c3.122,0,6.115-1.242,8.321-3.451l19.264-19.288C193.631,411.847,192.472,411.06,191.479,410.066z"/>
<path style="fill:#FFED84;" d="M422.144,198.676c-9.849,6.689-15.897,12.736-22.587,22.587c-0.97,1.427-3.059,1.427-4.029,0
	c-6.689-9.85-12.737-15.896-22.585-22.587c-1.427-0.97-1.427-3.059,0-4.029c9.848-6.689,15.896-12.736,22.585-22.585
	c0.97-1.427,3.059-1.427,4.029,0c6.689,9.849,12.737,15.896,22.587,22.585C423.571,195.617,423.571,197.706,422.144,198.676z"/>
<path style="fill:#F9EEB7;" d="M375.495,280.147l-15.38-15.379c-0.947-0.947-0.947-2.482,0-3.429l15.378-15.379
	c0.947-0.947,2.482-0.947,3.429,0l15.38,15.379c0.947,0.947,0.947,2.482,0,3.429l-15.378,15.379
	C377.978,281.093,376.442,281.093,375.495,280.147z"/>
</svg>